<?xml version="1.0" encoding="UTF-8"?>
<svg xmlns="http://www.w3.org/2000/svg" xmlns:xlink="http://www.w3.org/1999/xlink" width="36px" height="36px" viewBox="0 0 36 36" version="1.1">
<g id="surface1">
<path style=" stroke:none;fill-rule:nonzero;fill:rgb(0%,0%,0%);fill-opacity:1;" d="M 18.601562 14.699219 L 18.601562 5.699219 C 18.601562 4.859375 17.941406 4.203125 17.101562 4.203125 L 16.800781 4.203125 L 16.800781 3.300781 C 16.800781 2.460938 16.140625 1.800781 15.300781 1.800781 L 10.800781 1.800781 L 9.480469 0.238281 C 9.359375 0.0585938 9.179688 0 9 0 L 2.699219 0 C 1.859375 0 1.199219 0.660156 1.199219 1.5 L 1.199219 4.230469 C 0.507812 4.367188 0 4.964844 0 5.699219 L 0 14.699219 C 0 15.539062 0.660156 16.199219 1.5 16.199219 L 17.101562 16.199219 C 17.941406 16.199219 18.601562 15.539062 18.601562 14.699219 Z M 2.402344 1.5 C 2.402344 1.320312 2.519531 1.199219 2.699219 1.199219 L 8.703125 1.199219 L 10.019531 2.757812 C 10.140625 2.9375 10.320312 3 10.5 3 L 15.300781 3 C 15.480469 3 15.597656 3.117188 15.597656 3.300781 L 15.597656 4.203125 L 2.402344 4.203125 Z M 17.398438 14.699219 C 17.398438 14.882812 17.28125 15 17.101562 15 L 1.5 15 C 1.320312 15 1.199219 14.882812 1.199219 14.699219 L 1.199219 5.699219 C 1.199219 5.519531 1.320312 5.398438 1.5 5.398438 L 17.101562 5.398438 C 17.28125 5.398438 17.398438 5.519531 17.398438 5.699219 Z M 17.398438 14.699219 "/>
<path style=" stroke:none;fill-rule:nonzero;fill:rgb(0%,0%,0%);fill-opacity:1;" d="M 6.597656 6.597656 L 3 6.597656 C 2.640625 6.597656 2.402344 6.839844 2.402344 7.199219 C 2.402344 7.558594 2.640625 7.800781 3 7.800781 L 6.597656 7.800781 C 6.960938 7.800781 7.199219 7.558594 7.199219 7.199219 C 7.199219 6.839844 6.960938 6.597656 6.597656 6.597656 Z M 6.597656 6.597656 "/>
<path style=" stroke:none;fill-rule:nonzero;fill:rgb(0%,0%,0%);fill-opacity:1;" d="M 6.597656 9 L 3 9 C 2.640625 9 2.402344 9.238281 2.402344 9.601562 C 2.402344 9.960938 2.640625 10.199219 3 10.199219 L 6.597656 10.199219 C 6.960938 10.199219 7.199219 9.960938 7.199219 9.601562 C 7.199219 9.238281 6.960938 9 6.597656 9 Z M 6.597656 9 "/>
<path style=" stroke:none;fill-rule:nonzero;fill:rgb(0%,0%,0%);fill-opacity:1;" d="M 34.5 24 L 34.199219 24 L 34.199219 23.101562 C 34.199219 22.261719 33.539062 21.601562 32.699219 21.601562 L 28.199219 21.601562 L 26.878906 20.039062 C 26.761719 19.859375 26.578125 19.800781 26.398438 19.800781 L 20.097656 19.800781 C 19.257812 19.800781 18.601562 20.460938 18.601562 21.300781 L 18.601562 24.03125 C 17.910156 24.167969 17.398438 24.765625 17.398438 25.5 L 17.398438 34.5 C 17.398438 35.339844 18.058594 36 18.898438 36 L 34.5 36 C 35.339844 36 36 35.339844 36 34.5 L 36 25.5 C 36 24.660156 35.339844 24 34.5 24 Z M 19.800781 21.300781 C 19.800781 21.117188 19.917969 21 20.097656 21 L 26.101562 21 L 27.417969 22.558594 C 27.542969 22.738281 27.71875 22.796875 27.898438 22.796875 L 32.699219 22.796875 C 32.882812 22.796875 33 22.917969 33 23.101562 L 33 24 L 19.800781 24 Z M 34.800781 34.5 C 34.800781 34.679688 34.679688 34.800781 34.5 34.800781 L 18.898438 34.800781 C 18.71875 34.800781 18.601562 34.679688 18.601562 34.5 L 18.601562 25.5 C 18.601562 25.320312 18.71875 25.199219 18.898438 25.199219 L 34.5 25.199219 C 34.679688 25.199219 34.800781 25.320312 34.800781 25.5 Z M 34.800781 34.5 "/>
<path style=" stroke:none;fill-rule:nonzero;fill:rgb(0%,0%,0%);fill-opacity:1;" d="M 24 26.398438 L 20.402344 26.398438 C 20.039062 26.398438 19.800781 26.640625 19.800781 27 C 19.800781 27.359375 20.039062 27.601562 20.402344 27.601562 L 24 27.601562 C 24.359375 27.601562 24.597656 27.359375 24.597656 27 C 24.597656 26.640625 24.359375 26.398438 24 26.398438 Z M 24 26.398438 "/>
<path style=" stroke:none;fill-rule:nonzero;fill:rgb(0%,0%,0%);fill-opacity:1;" d="M 24 28.800781 L 20.402344 28.800781 C 20.039062 28.800781 19.800781 29.039062 19.800781 29.402344 C 19.800781 29.757812 20.039062 30 20.402344 30 L 24 30 C 24.359375 30 24.597656 29.757812 24.597656 29.402344 C 24.597656 29.039062 24.359375 28.800781 24 28.800781 Z M 24 28.800781 "/>
<path style=" stroke:none;fill-rule:nonzero;fill:rgb(0%,0%,0%);fill-opacity:1;" d="M 15 30.601562 L 6.597656 30.601562 L 6.597656 18.601562 C 6.597656 18.238281 6.359375 18 6 18 C 5.640625 18 5.398438 18.238281 5.398438 18.601562 L 5.398438 31.203125 C 5.398438 31.558594 5.640625 31.796875 6 31.796875 L 15 31.796875 C 15.359375 31.796875 15.597656 31.558594 15.597656 31.203125 C 15.597656 30.839844 15.359375 30.601562 15 30.601562 Z M 15 30.601562 "/>
<path style=" stroke:none;fill-rule:nonzero;fill:rgb(0%,0%,0%);fill-opacity:1;" d="M 21 7.199219 L 30 7.199219 L 30 19.199219 C 30 19.5625 30.242188 19.800781 30.601562 19.800781 C 30.957031 19.800781 31.203125 19.5625 31.203125 19.199219 L 31.203125 6.597656 C 31.203125 6.242188 30.957031 6 30.601562 6 L 21 6 C 20.640625 6 20.402344 6.242188 20.402344 6.597656 C 20.402344 6.960938 20.640625 7.199219 21 7.199219 Z M 21 7.199219 "/>
</g>
</svg>
